<svg width="32" height="32" viewBox="0 0 32 32" fill="none" xmlns="http://www.w3.org/2000/svg">
<path d="M26 22C25.2937 22.0035 24.602 22.2006 24 22.57L20.91 19.47C21.629 18.4558 22.0152 17.2432 22.0152 16C22.0152 14.7568 21.629 13.5442 20.91 12.53L24 9.43C24.602 9.7994 25.2937 9.99655 26 10C26.7911 10 27.5645 9.76541 28.2223 9.32588C28.8801 8.88635 29.3928 8.26164 29.6955 7.53074C29.9983 6.79983 30.0775 5.99556 29.9231 5.21964C29.7688 4.44372 29.3878 3.73098 28.8284 3.17157C28.269 2.61216 27.5563 2.2312 26.7804 2.07686C26.0044 1.92252 25.2002 2.00173 24.4693 2.30448C23.7384 2.60723 23.1136 3.11992 22.6741 3.77772C22.2346 4.43552 22 5.20888 22 6C22.0035 6.70626 22.2006 7.39804 22.57 8L19.47 11.09C18.4558 10.371 17.2432 9.98481 16 9.98481C14.7568 9.98481 13.5442 10.371 12.53 11.09L9.43 8C9.7994 7.39804 9.99655 6.70626 10 6C10 5.20888 9.76541 4.43552 9.32588 3.77772C8.88635 3.11992 8.26164 2.60723 7.53074 2.30448C6.79983 2.00173 5.99556 1.92252 5.21964 2.07686C4.44372 2.2312 3.73098 2.61216 3.17157 3.17157C2.61216 3.73098 2.2312 4.44372 2.07686 5.21964C1.92252 5.99556 2.00173 6.79983 2.30448 7.53074C2.60723 8.26164 3.11992 8.88635 3.77772 9.32588C4.43552 9.76541 5.20888 10 6 10C6.70626 9.99655 7.39804 9.7994 8 9.43L11.09 12.53C10.371 13.5442 9.98481 14.7568 9.98481 16C9.98481 17.2432 10.371 18.4558 11.09 19.47L8 22.57C7.39804 22.2006 6.70626 22.0035 6 22C5.20888 22 4.43552 22.2346 3.77772 22.6741C3.11992 23.1136 2.60723 23.7384 2.30448 24.4693C2.00173 25.2002 1.92252 26.0044 2.07686 26.7804C2.2312 27.5563 2.61216 28.269 3.17157 28.8284C3.73098 29.3878 4.44372 29.7688 5.21964 29.9231C5.99556 30.0775 6.79983 29.9983 7.53074 29.6955C8.26164 29.3928 8.88635 28.8801 9.32588 28.2223C9.76541 27.5645 10 26.7911 10 26C9.99655 25.2937 9.7994 24.602 9.43 24L12.53 20.91C13.5442 21.629 14.7568 22.0152 16 22.0152C17.2432 22.0152 18.4558 21.629 19.47 20.91L22.57 24C22.2006 24.602 22.0035 25.2937 22 26C22 26.7911 22.2346 27.5645 22.6741 28.2223C23.1136 28.8801 23.7384 29.3928 24.4693 29.6955C25.2002 29.9983 26.0044 30.0775 26.7804 29.9231C27.5563 29.7688 28.269 29.3878 28.8284 28.8284C29.3878 28.269 29.7688 27.5563 29.9231 26.7804C30.0775 26.0044 29.9983 25.2002 29.6955 24.4693C29.3928 23.7384 28.8801 23.1136 28.2223 22.6741C27.5645 22.2346 26.7911 22 26 22ZM26 4C26.3956 4 26.7822 4.1173 27.1111 4.33706C27.44 4.55683 27.6964 4.86918 27.8478 5.23463C27.9991 5.60009 28.0387 6.00222 27.9616 6.39018C27.8844 6.77814 27.6939 7.13451 27.4142 7.41422C27.1345 7.69392 26.7781 7.8844 26.3902 7.96157C26.0022 8.03874 25.6001 7.99914 25.2346 7.84776C24.8692 7.69639 24.5568 7.44004 24.3371 7.11114C24.1173 6.78224 24 6.39556 24 6C24 5.46957 24.2107 4.96086 24.5858 4.58579C24.9609 4.21072 25.4696 4 26 4ZM4 6C4 5.60444 4.1173 5.21776 4.33706 4.88886C4.55683 4.55996 4.86918 4.30362 5.23463 4.15224C5.60009 4.00087 6.00222 3.96126 6.39018 4.03843C6.77814 4.1156 7.13451 4.30608 7.41422 4.58579C7.69392 4.86549 7.8844 5.22186 7.96157 5.60982C8.03874 5.99778 7.99914 6.39992 7.84776 6.76537C7.69639 7.13082 7.44004 7.44318 7.11114 7.66294C6.78224 7.8827 6.39556 8 6 8C5.46957 8 4.96086 7.78929 4.58579 7.41422C4.21072 7.03914 4 6.53044 4 6ZM6 28C5.60444 28 5.21776 27.8827 4.88886 27.6629C4.55996 27.4432 4.30362 27.1308 4.15224 26.7654C4.00087 26.3999 3.96126 25.9978 4.03843 25.6098C4.1156 25.2219 4.30608 24.8655 4.58579 24.5858C4.86549 24.3061 5.22186 24.1156 5.60982 24.0384C5.99778 23.9613 6.39992 24.0009 6.76537 24.1522C7.13082 24.3036 7.44318 24.56 7.66294 24.8889C7.8827 25.2178 8 25.6044 8 26C8 26.5304 7.78929 27.0391 7.41422 27.4142C7.03914 27.7893 6.53044 28 6 28ZM16 20C15.2089 20 14.4355 19.7654 13.7777 19.3259C13.1199 18.8864 12.6072 18.2616 12.3045 17.5307C12.0017 16.7998 11.9225 15.9956 12.0769 15.2196C12.2312 14.4437 12.6122 13.731 13.1716 13.1716C13.731 12.6122 14.4437 12.2312 15.2196 12.0769C15.9956 11.9225 16.7998 12.0017 17.5307 12.3045C18.2616 12.6072 18.8864 13.1199 19.3259 13.7777C19.7654 14.4355 20 15.2089 20 16C20 17.0609 19.5786 18.0783 18.8284 18.8284C18.0783 19.5786 17.0609 20 16 20ZM26 28C25.6044 28 25.2178 27.8827 24.8889 27.6629C24.56 27.4432 24.3036 27.1308 24.1522 26.7654C24.0009 26.3999 23.9613 25.9978 24.0384 25.6098C24.1156 25.2219 24.3061 24.8655 24.5858 24.5858C24.8655 24.3061 25.2219 24.1156 25.6098 24.0384C25.9978 23.9613 26.3999 24.0009 26.7654 24.1522C27.1308 24.3036 27.4432 24.56 27.6629 24.8889C27.8827 25.2178 28 25.6044 28 26C28 26.5304 27.7893 27.0391 27.4142 27.4142C27.0391 27.7893 26.5304 28 26 28Z" fill="#EC467E"/>
</svg>
