<svg width="32" height="32" viewBox="0 0 32 32" fill="none" xmlns="http://www.w3.org/2000/svg">
<path d="M26.6667 18V3.99996C26.6667 3.64634 26.5262 3.3072 26.2762 3.05715C26.0261 2.8071 25.687 2.66663 25.3334 2.66663H6.66671C6.31309 2.66663 5.97395 2.8071 5.7239 3.05715C5.47385 3.3072 5.33337 3.64634 5.33337 3.99996V28C5.33337 28.3536 5.47385 28.6927 5.7239 28.9428C5.97395 29.1928 6.31309 29.3333 6.66671 29.3333H14" stroke="#FFCE00" stroke-width="2.2" stroke-linecap="round" stroke-linejoin="round"/>
<path d="M11.3334 8H20.6667" stroke="#FFCE00" stroke-width="2.2" stroke-linecap="round" stroke-linejoin="round"/>
<path d="M11.3334 13.3333H20.6667" stroke="#FFCE00" stroke-width="2.2" stroke-linecap="round" stroke-linejoin="round"/>
<path d="M11.3334 18.6666H15.3334" stroke="#FFCE00" stroke-width="2.2" stroke-linecap="round" stroke-linejoin="round"/>
<path d="M25.9999 29.3333L23.6899 27.0233L25.9999 29.3333ZM23.6899 27.0233C24.0059 26.7153 24.2575 26.3475 24.4302 25.9414C24.6029 25.5353 24.6933 25.099 24.6961 24.6577C24.6988 24.2164 24.614 23.779 24.4463 23.3707C24.2787 22.9625 24.0317 22.5916 23.7197 22.2796C23.4076 21.9676 23.0367 21.7206 22.6284 21.5531C22.2202 21.3855 21.7827 21.3007 21.3414 21.3035C20.9002 21.3064 20.4638 21.3968 20.0578 21.5696C19.6517 21.7423 19.284 21.994 18.9759 22.31C18.3554 22.9361 18.0082 23.7826 18.0103 24.6641C18.0123 25.5456 18.3635 26.3905 18.9869 27.0137C19.6103 27.637 20.4552 27.9879 21.3368 27.9897C22.2183 27.9915 23.0646 27.644 23.6906 27.0233H23.6899Z" stroke="#FFCE00" stroke-width="2.2" stroke-linecap="round" stroke-linejoin="round"/>
</svg>
