<svg width="20" height="20" viewBox="0 0 20 20" fill="none" xmlns="http://www.w3.org/2000/svg">
<g opacity="0.5">
<path d="M9.16668 4.16671C9.16668 4.62694 9.53977 5.00004 10 5.00004C10.4602 5.00004 10.8333 4.62694 10.8333 4.16671C10.8333 3.70647 10.4602 3.33337 10 3.33337C9.53977 3.33337 9.16668 3.70647 9.16668 4.16671Z" stroke="white" stroke-width="2" stroke-linecap="round" stroke-linejoin="round"/>
<path d="M9.16668 10.0001C9.16668 10.4603 9.53977 10.8334 10 10.8334C10.4602 10.8334 10.8333 10.4603 10.8333 10.0001C10.8333 9.53984 10.4602 9.16675 10 9.16675C9.53977 9.16675 9.16668 9.53984 9.16668 10.0001Z" stroke="white" stroke-width="2" stroke-linecap="round" stroke-linejoin="round"/>
<path d="M9.16668 15.8333C9.16668 16.2936 9.53977 16.6667 10 16.6667C10.4602 16.6667 10.8333 16.2936 10.8333 15.8333C10.8333 15.3731 10.4602 15 10 15C9.53977 15 9.16668 15.3731 9.16668 15.8333Z" stroke="white" stroke-width="2" stroke-linecap="round" stroke-linejoin="round"/>
</g>
</svg>
