<svg width="16" height="16" viewBox="0 0 16 16" fill="none" xmlns="http://www.w3.org/2000/svg">
<path d="M5.33337 7.99992C5.33337 8.17673 5.40361 8.3463 5.52864 8.47132C5.65366 8.59635 5.82323 8.66659 6.00004 8.66659H10C10.1769 8.66659 10.3464 8.59635 10.4714 8.47132C10.5965 8.3463 10.6667 8.17673 10.6667 7.99992C10.6667 7.82311 10.5965 7.65354 10.4714 7.52851C10.3464 7.40349 10.1769 7.33325 10 7.33325H6.00004C5.82323 7.33325 5.65366 7.40349 5.52864 7.52851C5.40361 7.65354 5.33337 7.82311 5.33337 7.99992Z" fill="white"/>
<path d="M5.99999 10.6666H4.80665C4.12156 10.6849 3.45427 10.4471 2.93523 9.99952C2.41619 9.55199 2.08271 8.92697 1.99999 8.24664C1.96558 7.87628 2.00903 7.50282 2.12754 7.15026C2.24606 6.79769 2.43703 6.47382 2.68817 6.19945C2.9393 5.92508 3.24506 5.70628 3.5858 5.55712C3.92653 5.40795 4.2947 5.33172 4.66665 5.33331H5.99999C6.1768 5.33331 6.34637 5.26307 6.47139 5.13805C6.59642 5.01303 6.66665 4.84346 6.66665 4.66665C6.66665 4.48983 6.59642 4.32027 6.47139 4.19524C6.34637 4.07022 6.1768 3.99998 5.99999 3.99998H4.80665C3.81847 3.98677 2.85876 4.33095 2.10419 4.96915C1.34961 5.60735 0.85095 6.49663 0.699985 7.47331C0.624949 8.03824 0.671496 8.61269 0.836508 9.15817C1.00152 9.70365 1.28119 10.2076 1.65678 10.6362C2.03237 11.0648 2.49521 11.4082 3.0143 11.6434C3.5334 11.8786 4.09676 12.0002 4.66665 12H5.99999C6.1768 12 6.34637 11.9297 6.47139 11.8047C6.59642 11.6797 6.66665 11.5101 6.66665 11.3333C6.66665 11.1565 6.59642 10.9869 6.47139 10.8619C6.34637 10.7369 6.1768 10.6666 5.99999 10.6666ZM15.3333 7.49331C15.1842 6.50432 14.6794 5.60374 13.9134 4.96055C13.1475 4.31737 12.1732 3.97582 11.1733 3.99998H10.1667C9.62665 3.99998 9.33332 4.29998 9.33332 4.66665C9.33332 4.84346 9.40356 5.01303 9.52858 5.13805C9.65361 5.26307 9.82318 5.33331 9.99999 5.33331H11.1933C11.8784 5.31502 12.5457 5.5529 13.0647 6.00043C13.5838 6.44796 13.9173 7.07298 14 7.75331C14.0344 8.12367 13.9909 8.49713 13.8724 8.8497C13.7539 9.20226 13.5629 9.52614 13.3118 9.80051C13.0607 10.0749 12.7549 10.2937 12.4142 10.4428C12.0734 10.592 11.7053 10.6682 11.3333 10.6666H9.99999C9.82318 10.6666 9.65361 10.7369 9.52858 10.8619C9.40356 10.9869 9.33332 11.1565 9.33332 11.3333C9.33332 11.5101 9.40356 11.6797 9.52858 11.8047C9.65361 11.9297 9.82318 12 9.99999 12H11.3333C11.9041 12.0046 12.4693 11.887 12.9908 11.655C13.5124 11.4231 13.9782 11.0823 14.3571 10.6554C14.736 10.2285 15.0192 9.72542 15.1876 9.18002C15.3559 8.63462 15.4056 8.05951 15.3333 7.49331Z" fill="white"/>
</svg>
