<svg width="32" height="32" viewBox="0 0 32 32" fill="none" xmlns="http://www.w3.org/2000/svg">
<path d="M28 2H4C3.46973 2.00053 2.96133 2.21141 2.58637 2.58637C2.21141 2.96133 2.00053 3.46973 2 4V28C2.00053 28.5303 2.21141 29.0387 2.58637 29.4136C2.96133 29.7886 3.46973 29.9995 4 30H28C28.5302 29.9992 29.0384 29.7882 29.4133 29.4133C29.7882 29.0384 29.9992 28.5302 30 28V4C29.9995 3.46973 29.7886 2.96133 29.4136 2.58637C29.0387 2.21141 28.5303 2.00053 28 2ZM28 11H14V4H28V11ZM12 4V11H4V4H12ZM4 28V13H28L28.002 28H4Z" fill="#00C371"/>
<path fill-rule="evenodd" clip-rule="evenodd" d="M18.316 14.5934C18.4407 14.6287 18.5559 14.6844 18.6552 14.7576C18.7545 14.8307 18.8358 14.9197 18.8946 15.0196C18.9534 15.1194 18.9885 15.2281 18.9978 15.3395C19.0071 15.4509 18.9906 15.5627 18.949 15.6687L14.949 25.8687C14.8652 26.0826 14.6849 26.2595 14.4476 26.3604C14.2104 26.4613 13.9357 26.4779 13.684 26.4067C13.4323 26.3355 13.2243 26.1822 13.1055 25.9805C12.9868 25.7789 12.9672 25.5454 13.051 25.3315L17.051 15.1315C17.0925 15.0255 17.1581 14.9275 17.2442 14.8432C17.3302 14.7588 17.4349 14.6896 17.5524 14.6397C17.6699 14.5897 17.7978 14.5599 17.9288 14.552C18.0598 14.544 18.1914 14.5581 18.316 14.5934ZM11.707 17.3491C11.8945 17.5085 11.9998 17.7247 11.9998 17.9501C11.9998 18.1754 11.8945 18.3916 11.707 18.551L9.41403 20.5001L11.707 22.4491C11.8025 22.5275 11.8787 22.6213 11.9311 22.725C11.9835 22.8287 12.0111 22.9402 12.0123 23.0531C12.0134 23.166 11.9881 23.2779 11.9379 23.3824C11.8876 23.4868 11.8133 23.5817 11.7194 23.6615C11.6255 23.7413 11.5139 23.8045 11.391 23.8472C11.2681 23.8899 11.1364 23.9114 11.0036 23.9105C10.8708 23.9095 10.7396 23.886 10.6176 23.8415C10.4956 23.7969 10.3853 23.7322 10.293 23.651L7.29303 21.101C7.10556 20.9416 7.00024 20.7254 7.00024 20.5001C7.00024 20.2747 7.10556 20.0585 7.29303 19.8991L10.293 17.3491C10.4806 17.1898 10.7349 17.1002 11 17.1002C11.2652 17.1002 11.5195 17.1898 11.707 17.3491ZM20.293 17.3491C20.4806 17.1898 20.7349 17.1002 21 17.1002C21.2652 17.1002 21.5195 17.1898 21.707 17.3491L24.707 19.8991C24.8945 20.0585 24.9998 20.2747 24.9998 20.5001C24.9998 20.7254 24.8945 20.9416 24.707 21.101L21.707 23.651C21.6148 23.7322 21.5044 23.7969 21.3824 23.8415C21.2604 23.886 21.1292 23.9095 20.9964 23.9105C20.8637 23.9114 20.732 23.8899 20.6091 23.8472C20.4862 23.8045 20.3745 23.7413 20.2806 23.6615C20.1867 23.5817 20.1125 23.4868 20.0622 23.3824C20.0119 23.2779 19.9866 23.166 19.9878 23.0531C19.9889 22.9402 20.0165 22.8287 20.0689 22.725C20.1213 22.6213 20.1975 22.5275 20.293 22.4491L22.586 20.5001L20.293 18.551C20.1056 18.3916 20.0002 18.1754 20.0002 17.9501C20.0002 17.7247 20.1056 17.5085 20.293 17.3491Z" fill="#00C371"/>
</svg>
